<svg height="25" viewBox="0 0 22 25" width="22" xmlns="http://www.w3.org/2000/svg"><g fill="#ffd166" fill-rule="evenodd"><path d="m8.99016356 17.0054742c-2.43308857-.8579925-4.17628647-3.1730739-4.17628647-5.8943631 0-3.45177968 2.80468071-6.24999999 6.26442971-6.24999999s6.2644297 2.79822031 6.2644297 6.24999999c0 2.7212892-1.7431979 5.0363706-4.1762865 5.8943631v7.5945258c0 .2209139-.1790861.4-.4.4h-3.37628644c-.2209139 0-.4-.1790861-.4-.4z"/><g stroke="#fff" stroke-width=".5"><path d="m11.1556454 3.81944444v-3.47222222"/><path d="m15.5774274 5.07395608 2.1901852-2.69842348z"/><path d="m.85537968 15.5477635 3.01397515-1.7361111z"/><path d="m3.46334565 19.0509557 2.28324204-2.6205194z"/><path d="m0 11.1975964h3.48023873z"/><path d="m1.14198858 6.12016259 3.20357664 1.35670531z"/><path d="m5.20441205 1.67537059 1.79245546 2.97627534z"/><path d="m21.1651612 6.31996238-3.0438854 1.68336674z"/><path d="m22 10.7438271-3.4797087-.0605986z"/><path d="m20.9008885 15.7337126-3.1280179-1.522122z"/><path d="m18.3973091 19.2060332-2.4609004-2.4552319z"/></g></g></svg>