<svg xmlns="http://www.w3.org/2000/svg" xmlns:xlink="http://www.w3.org/1999/xlink" width="911.4" height="785.888" viewBox="0 0 911.4 785.888">
  <defs>
    <filter id="Path_784" x="0" y="0" width="911.4" height="785.888" filterUnits="userSpaceOnUse">
      <feOffset dy="2" input="SourceAlpha"/>
      <feGaussianBlur stdDeviation="2.5" result="blur"/>
      <feFlood flood-color="#c4b9a0" flood-opacity="0.502"/>
      <feComposite operator="in" in2="blur"/>
      <feComposite in="SourceGraphic"/>
    </filter>
    <filter id="Path_785" x="160.557" y="138.818" width="590.728" height="510.536" filterUnits="userSpaceOnUse">
      <feOffset dy="3" input="SourceAlpha"/>
      <feGaussianBlur stdDeviation="3" result="blur-2"/>
      <feFlood flood-color="#ffd166" flood-opacity="0.502"/>
      <feComposite operator="in" in2="blur-2"/>
      <feComposite in="SourceGraphic"/>
    </filter>
    <filter id="Path_783" x="232.5" y="262.024" width="370.6" height="321.23" filterUnits="userSpaceOnUse">
      <feOffset dy="3" input="SourceAlpha"/>
      <feGaussianBlur stdDeviation="3" result="blur-3"/>
      <feFlood flood-color="#c7ad70" flood-opacity="0.502"/>
      <feComposite operator="in" in2="blur-3"/>
      <feComposite in="SourceGraphic"/>
    </filter>
    <filter id="Path_781" x="311.081" y="335.254" width="213.419" height="174.529" filterUnits="userSpaceOnUse">
      <feOffset dy="3" input="SourceAlpha"/>
      <feGaussianBlur stdDeviation="3" result="blur-4"/>
      <feFlood flood-color="#ffd166" flood-opacity="0.502"/>
      <feComposite operator="in" in2="blur-4"/>
      <feComposite in="SourceGraphic"/>
    </filter>
    <filter id="Subtraction_7" x="91.806" y="79.888" width="729.131" height="629.559" filterUnits="userSpaceOnUse">
      <feOffset dy="3" input="SourceAlpha"/>
      <feGaussianBlur stdDeviation="3" result="blur-5"/>
      <feFlood flood-color="#ffd166" flood-opacity="0.502"/>
      <feComposite operator="in" in2="blur-5"/>
      <feComposite in="SourceGraphic"/>
    </filter>
  </defs>
  <g id="Group_200" data-name="Group 200" transform="translate(8878.5 2023.654)">
    <g transform="matrix(1, 0, 0, 1, -8878.5, -2023.65)" filter="url(#Path_784)">
      <path id="Path_784-2" data-name="Path 784" d="M-2473.582-1412c162.647,0,381.982,422.783,381.982,600.589s-438.725,170.252-601.37,170.252S-2988-819.995-2988-997.8-2636.227-1412-2473.582-1412Z" transform="translate(2995.5 1417.5)" fill="#fff4db" opacity="0.3"/>
    </g>
    <g transform="matrix(1, 0, 0, 1, -8878.5, -2023.65)" filter="url(#Path_785)">
      <path id="Path_785-2" data-name="Path 785" d="M-2659.328-1412c103.918,0,244.056,270.125,244.056,383.729S-2695.581-919.494-2799.5-919.494-2988-1033.756-2988-1147.359-2763.245-1412-2659.328-1412Z" transform="translate(3157.56 1556.82)" fill="#ffdf94" opacity="0.3"/>
    </g>
    <g transform="matrix(1, 0, 0, 1, -8878.5, -2023.65)" filter="url(#Path_783)">
      <path id="Path_783-2" data-name="Path 783" d="M-2785.653-1412c63.978,0,150.253,166.3,150.253,236.242s-172.572,66.969-236.549,66.969S-2988-1179.134-2988-1249.074-2849.63-1412-2785.653-1412Z" transform="translate(3229.5 1680.02)" fill="#ffd87f" opacity="0.3"/>
    </g>
    <g transform="matrix(1, 0, 0, 1, -8878.5, -2023.65)" filter="url(#Path_781)">
      <path id="Path_781-2" data-name="Path 781" d="M-2875.855-1412c35.457,0,83.273,85.846,83.273,121.95s-95.644,34.57-131.1,34.57S-2988-1291.793-2988-1327.9-2911.312-1412-2875.855-1412Z" transform="translate(3308.08 1753.25)" fill="#ffd166" opacity="0.49"/>
    </g>
    <g id="Group_195" data-name="Group 195" transform="translate(-10984 4486.805)">
      <ellipse id="Ellipse_277" data-name="Ellipse 277" cx="5.381" cy="0.807" rx="5.381" ry="0.807" transform="matrix(0.163, -0.987, 0.987, 0.163, 2374.959, -6042.943)" fill="#e0e0e0"/>
      <ellipse id="Ellipse_278" data-name="Ellipse 278" cx="5.381" cy="0.548" rx="5.381" ry="0.548" transform="matrix(0.163, -0.987, 0.987, 0.163, 2449.281, -6030.625)" fill="#e0e0e0"/>
      <rect id="Rectangle_319" data-name="Rectangle 319" width="3.229" height="10.762" transform="translate(2409.888 -6039.335) rotate(22.547)" fill="#f55f44"/>
      <rect id="Rectangle_320" data-name="Rectangle 320" width="3.633" height="10.762" transform="matrix(-0.998, 0.066, -0.066, -0.998, 2413.641, -6028.092)" opacity="0.05"/>
      <rect id="Rectangle_321" data-name="Rectangle 321" width="3.229" height="10.762" transform="matrix(-0.998, 0.066, -0.066, -0.998, 2413.641, -6028.092)" fill="#f55f44"/>
      <rect id="Rectangle_323" data-name="Rectangle 323" width="6.188" height="10.762" transform="matrix(0.987, 0.163, -0.163, 0.987, 2409.897, -6048.073)" opacity="0.05"/>
      <rect id="Rectangle_324" data-name="Rectangle 324" width="5.65" height="10.762" transform="matrix(0.987, 0.163, -0.163, 0.987, 2410.163, -6048.029)" fill="#f55f44"/>
      <rect id="Rectangle_325" data-name="Rectangle 325" width="3.767" height="10.762" transform="matrix(0.987, 0.163, -0.163, 0.987, 2410.959, -6047.897)" opacity="0.05"/>
      <rect id="Rectangle_326" data-name="Rectangle 326" width="3.229" height="10.762" transform="matrix(0.987, 0.163, -0.163, 0.987, 2411.224, -6047.854)" fill="#f55f44"/>
      <circle id="Ellipse_279" data-name="Ellipse 279" cx="0.449" cy="0.449" r="0.449" transform="translate(2422.437 -6018.205) rotate(-17)" fill="#dbdbdb"/>
      <g id="Group_191" data-name="Group 191" transform="translate(2384.292 -6019.209) rotate(-17)" opacity="0.5">
        <rect id="Rectangle_327" data-name="Rectangle 327" width="0.46" height="2.607" transform="translate(1.073 0)" fill="#47e6b1"/>
        <rect id="Rectangle_328" data-name="Rectangle 328" width="0.46" height="2.607" transform="translate(2.607 1.073) rotate(90)" fill="#47e6b1"/>
      </g>
      <g id="Group_192" data-name="Group 192" transform="translate(2485.644 -6084.188) rotate(-17)" opacity="0.5">
        <rect id="Rectangle_329" data-name="Rectangle 329" width="0.46" height="2.607" transform="translate(1.073 0)" fill="#47e6b1"/>
        <rect id="Rectangle_330" data-name="Rectangle 330" width="0.46" height="2.607" transform="translate(2.607 1.073) rotate(90)" fill="#47e6b1"/>
      </g>
      <path id="Path_718" data-name="Path 718" d="M1.884,1.043A.563.563,0,0,1,1.57.362.27.27,0,0,0,1.582.3h0A.283.283,0,0,0,1.074.112h0a.268.268,0,0,0-.031.055A.563.563,0,0,1,.362.482.271.271,0,0,0,.3.47h0A.283.283,0,0,0,.112.977h0a.27.27,0,0,0,.055.031.563.563,0,0,1,.314.681.27.27,0,0,0-.012.062h0a.283.283,0,0,0,.508.187h0a.27.27,0,0,0,.031-.055.563.563,0,0,1,.681-.314.271.271,0,0,0,.062.012h0a.283.283,0,0,0,.187-.508h0A.274.274,0,0,0,1.884,1.043Z" transform="translate(2440.55 -6023.798) rotate(-17)" fill="#4d8af0" opacity="0.5"/>
      <circle id="Ellipse_282" data-name="Ellipse 282" cx="0.92" cy="0.92" r="0.92" transform="translate(2397.666 -6014.8) rotate(-17)" fill="#47e6b1" opacity="0.5"/>
      <path id="Path_719" data-name="Path 719" d="M3.385,12.331,0,17.812s1.128,5.633,26.091,5.481,26.937-5.481,26.937-5.481L48.374,10.5,34.13,0Z" transform="translate(2402.357 -6046.976) rotate(-17)" fill="#6c63ff"/>
      <path id="Path_720" data-name="Path 720" d="M3.209,12.331,0,17.812s1.07,5.633,24.734,5.481,25.536-5.481,25.536-5.481L45.859,10.5,32.355,0Z" transform="translate(2404.994 -6047.782) rotate(-17)" opacity="0.15"/>
      <path id="Path_721" data-name="Path 721" d="M106.413,24.358,58.459,45.519,0,24.358,53.587,0l26.3,12.129.942.435Z" transform="translate(2364.922 -6069.358) rotate(-17)" fill="#3f3d56"/>
      <path id="Path_723" data-name="Path 723" d="M1.935,17.3l-.913.055L0,0,.942.435Z" transform="translate(2444.869 -6081.119) rotate(-17)" fill="#f5f5f5"/>
      <ellipse id="Ellipse_284" data-name="Ellipse 284" cx="4.415" cy="3.045" rx="4.415" ry="3.045" transform="translate(2447.247 -6064.6) rotate(-17)" fill="#f5f5f5"/>
      <path id="Path_725" data-name="Path 725" d="M628.069,94.8a42.854,42.854,0,0,1-5.671,22.137,44.257,44.257,0,0,1-4.031,5.788c-13.225,16.175-37.812,25.028-60.034,39.368-65.6,42.328-72.7-25.5-69.739-67.294a74.573,74.573,0,0,1,18.2-44.141,69.265,69.265,0,0,1,7.083-6.963A67.842,67.842,0,0,1,558.332,27.5c29.7,0,55.06,17.913,65.115,43.155A65.192,65.192,0,0,1,628.069,94.8Z" transform="translate(1985.831 -6110.683)" fill="#755d27"/>
      <path id="Path_726" data-name="Path 726" d="M629.744,88.423l-66.4,7.989a69.279,69.279,0,0,1,7.083-6.963Z" transform="translate(1929.278 -6156.436)" fill="#ffd87f"/>
      <path id="Path_728" data-name="Path 728" d="M750.445,191.006,654.05,178.5l94.074,5.562A64.826,64.826,0,0,1,750.445,191.006Z" transform="translate(1861.154 -6224.09)" fill="#ffd87f"/>
      <path id="Path_741" data-name="Path 741" d="M567.5,636.956s15.3.637,15.3,4.462-17.21,0-17.21,0Z" transform="translate(1927.595 -6568.407)" fill="#a0616a"/>
      <path id="Path_742" data-name="Path 742" d="M286.89,627.9l-28.683-1.912-1.275-15.3-6.374,13.385-28.045-3.824c.637-24.221,10.836-47.8,11.473-50.992s2.161-16.356,2.161-16.356c2.785-5.909,17.382-6.463,28.823-5.928,4.742.217,8.949.625,11.543.918,1.715.191,2.728.331,2.728.331,4.57,4.71,7.515,11.129,9.325,18.3C295.094,592.355,286.89,627.9,286.89,627.9Z" transform="translate(2185.256 -6500.706)" fill="#2f2e41"/>
      <circle id="Ellipse_285" data-name="Ellipse 285" cx="15.935" cy="15.935" r="15.935" transform="translate(2424.342 -6052.556)" fill="#a0616a"/>
      <path id="Path_743" data-name="Path 743" d="M272.108,229.879s-4.462,19.759-11.473,25.5,27.408,0,27.408,0-7.649-12.748-1.912-18.484S272.108,229.879,272.108,229.879Z" transform="translate(2157.333 -6262.675)" fill="#a0616a"/>
      <path id="Path_744" data-name="Path 744" d="M276.434,367.228,265.86,368.4l-29.581,3.289s-.14-.376-.389-1.058c-2.148-5.858-12.493-34.362-13.634-42.922-1.275-9.561,12.111-21.034,12.111-21.034s12.748-2.55,16.572-2.55,19.122,5.737,19.122,5.737l5.7,51.317.491,4.443Z" transform="translate(2185.514 -6318.438)" fill="#d0cde1"/>
      <path id="Path_745" data-name="Path 745" d="M384.552,465.035l-21.436-12.563s-.376-1.224-1.014-3.289c-.319-1.033-.707-2.282-1.147-3.7-2.473-7.942-6.622-21.047-9.95-30.62-5.1-14.66,19.759,26.133,19.759,26.133l1.243.962.491,4.443c1.715.191,2.728.331,2.728.331C379.8,451.445,382.742,457.864,384.552,465.035Z" transform="translate(2089.271 -6399.22)" opacity="0.15"/>
      <path id="Path_746" data-name="Path 746" d="M363.757,326.6s-6.374,8.286-1.275,22.946,12.111,37.606,12.111,37.606l36.969,21.671,5.1-6.374-34.419-26.771s-1.275-48.442-7.649-50.354A13.063,13.063,0,0,0,363.757,326.6Z" transform="translate(2081.619 -6333.9)" fill="#d0cde1"/>
      <path id="Path_747" data-name="Path 747" d="M246.836,542.849s8.924,18.484,12.748,16.572-9.561-21.034-9.561-21.034Z" transform="translate(2166.989 -6494.377)" fill="#a0616a"/>
      <path id="Path_748" data-name="Path 748" d="M130.707,352.77,96.925,380.815s-12.748,8.924,10.836,15.3,25.5,10.2,25.5,10.2,2.55-8.286,5.737-7.011l-27.408-13.385,22.309-13.385Z" transform="translate(2282.162 -6354.972)" fill="#d0cde1"/>
      <path id="Path_749" data-name="Path 749" d="M165.39,152.514a89.992,89.992,0,0,0,9.023-4.785c-.234-6.945.621-13.25,3.125-16.592,1.405-3.191,4.356-6.385,6.667-8.9,5.676-6.178,18.226-9.627,20.452-6.54,16.836.332,18.608,13.529,18.608,13.529-.088,5.52-5.825,5.695-10.85,5.493.45,3.768-.749,7.684-4.222,9.42-6.641,3.321-8.634,7.637-5.313,10.626s9.3,10.958,1.328,12.95-8.966,5.977-6.641,7.637-5.313-2.989-5.313-2.989-1.328,7.97-8.3,5.977a4.2,4.2,0,0,1-1.864-1.32c-1.883,2.069-3.563,3.293-4.83,3.3-7.252.038-6.383-7.994-6.383-7.994s-8.608,2.417-5.922,1.445,2.8-5.078-4.336-9.145S161.387,154.5,165.39,152.514Z" transform="translate(2233.901 -6176.056)" fill="#2f2e41"/>
      <path id="Path_750" data-name="Path 750" d="M545.054,253.425l-.116-.015.282,1.072a28.188,28.188,0,0,0,1.158,4.4l8.272,31.446a5.33,5.33,0,0,0,4.34,3.911l16.869,2.61a5.33,5.33,0,0,0,5.513-2.752L597.4,264.154a28.126,28.126,0,0,0,1.371-2.561l.544-1.017-.085-.011a28.343,28.343,0,1,0-54.181-7.14Z" transform="translate(1943.218 -6256.146)" fill="#ffd166"/>
      <path id="Path_751" data-name="Path 751" d="M572.458,293.011a5.814,5.814,0,0,1-.887-.068l-17.633-2.728a5.819,5.819,0,0,1-4.739-4.271l-8.646-32.869a29.624,29.624,0,0,1-1.214-4.62l-.219-1.438a29.882,29.882,0,0,1,34.205-33.326l-.076.492a29.394,29.394,0,0,0-33.592,33.09l.168,1.076a29.437,29.437,0,0,0,1.2,4.581l8.652,32.888a5.32,5.32,0,0,0,4.333,3.906l17.633,2.728a5.33,5.33,0,0,0,5.506-2.748l.439.235A5.83,5.83,0,0,1,572.458,293.011Z" transform="translate(1947.655 -6250.254)" fill="#d0cde1"/>
      <rect id="Rectangle_335" data-name="Rectangle 335" width="31.198" height="0.644" transform="translate(2513.856 -5966.277) rotate(-69.885)" fill="#d0cde1"/>
      <rect id="Rectangle_336" data-name="Rectangle 336" width="0.644" height="31.198" transform="translate(2506.425 -5998.256) rotate(-2.516)" fill="#d0cde1"/>
      <path id="Path_752" data-name="Path 752" d="M597.966,578.806l-22.595-3.5a.644.644,0,0,1,.2-1.273l22.595,3.5a.644.644,0,1,1-.2,1.273Z" transform="translate(1920.655 -6521.146)" fill="#3f3d56"/>
      <path id="Path_753" data-name="Path 753" d="M600.293,559.532l-22.595-3.5a.644.644,0,1,1,.2-1.273l22.595,3.5a.644.644,0,1,1-.2,1.273Z" transform="translate(1918.908 -6506.67)" fill="#3f3d56"/>
      <path id="Path_754" data-name="Path 754" d="M602.621,540.259l-22.595-3.5a.644.644,0,0,1,.2-1.273l22.595,3.5a.644.644,0,0,1-.2,1.273Z" transform="translate(1917.16 -6492.196)" fill="#3f3d56"/>
      <path id="Path_755" data-name="Path 755" d="M597.558,583.811c4.482.693,8.5-1.242,8.978-4.324l-16.23-2.511C589.829,580.058,593.076,583.118,597.558,583.811Z" transform="translate(1909.064 -6523.359)" fill="#3f3d56"/>
      <path id="Path_756" data-name="Path 756" d="M623.923,341.444a3.967,3.967,0,0,1-2.2-1.422c-.143-.167-.283-.341-.423-.515a5.03,5.03,0,0,0-1.66-1.545c-1.478-.69-3.22.274-4.727,1.307l-.364-.531c1.658-1.137,3.591-2.186,5.364-1.36A5.581,5.581,0,0,1,621.8,339.1c.136.169.271.337.41.5.455.531,1.362,1.391,2.333,1.193a3.136,3.136,0,0,0,1.119-.593,6,6,0,0,1,.792-.5,3.154,3.154,0,0,1,3.462.489,6.228,6.228,0,0,1,.47.5,1.6,1.6,0,0,0,2.591.3,3.33,3.33,0,0,1,1.949-.584l.07.009c1.269.2,1.854,1.6,2.184,2.646l-.614.194c-.449-1.423-1-2.131-1.715-2.21a2.831,2.831,0,0,0-1.568.511,2.2,2.2,0,0,1-3.382-.447,5.672,5.672,0,0,0-.42-.446,2.531,2.531,0,0,0-2.742-.388,5.451,5.451,0,0,0-.706.448,3.657,3.657,0,0,1-1.362.7A2.115,2.115,0,0,1,623.923,341.444Z" transform="translate(1890.821 -6343.19)" fill="#d0cde1"/>
      <path id="Path_724" data-name="Path 724" d="M4.066,2.993,0,27.973s29.191-9.551,54.606,0L50.83,1.524S16.7-2.738,4.066,2.993Z" transform="translate(2397.583 -6057.196) rotate(-17)" fill="#3f3d56"/>
    </g>
    <g transform="matrix(1, 0, 0, 1, -8878.5, -2023.65)" filter="url(#Subtraction_7)">
      <path id="Subtraction_7-2" data-name="Subtraction 7" d="M268.129,611.559h-.083c-6.514,0-12.668-.01-18.619-.02h-.44q-7.893-.013-14.932-.016a178.939,178.939,0,0,1-47.1-6.372,199.007,199.007,0,0,1-43.9-18,234.446,234.446,0,0,1-39.753-27.956A275.043,275.043,0,0,1,68.64,522.954,308.553,308.553,0,0,1,40.034,480.1a324.724,324.724,0,0,1-21.608-47.793,319.9,319.9,0,0,1-13.661-51.06A298.534,298.534,0,0,1,0,328.592c0-17.044,4.119-35.421,12.243-54.618,7.636-18.044,18.865-36.963,33.377-56.233C72.49,182.062,110.542,145.29,155.663,111.4A747.089,747.089,0,0,1,222.27,66.776,658.934,658.934,0,0,1,289.9,31.506,439.116,439.116,0,0,1,353.516,8.334C373.963,2.8,392.327,0,408.1,0a86.663,86.663,0,0,1,24.667,3.8,129.517,129.517,0,0,1,25.4,10.886c16.544,9.136,33.944,22.568,51.717,39.923C542.588,86.549,576.517,131.752,608,185.333c14.742,25.088,28.627,51.46,41.27,78.383,12.486,26.587,23.473,53.095,32.656,78.787A611.352,611.352,0,0,1,703.4,415.487c5.128,23.207,7.729,43.721,7.729,60.972a76.208,76.208,0,0,1-12.992,43.13A97.075,97.075,0,0,1,682.875,537.2a138.807,138.807,0,0,1-20.243,15.212c-14.344,8.963-32.114,17.012-52.819,23.922a504.035,504.035,0,0,1-64.929,16.424c-21.7,4.118-45.866,7.594-71.836,10.331-22.678,2.39-47.42,4.288-73.54,5.641C351.41,611.223,306.1,611.559,268.129,611.559ZM397.424,58.93c-25.1,0-58.021,8.774-95.2,25.374-36.211,16.17-73.594,38.42-108.11,64.344-36.339,27.294-66.985,56.91-88.625,85.645-24.38,32.373-36.742,62.41-36.742,89.276,0,55.465,20.149,112.52,55.281,156.534,36.716,46,84.027,71.332,133.219,71.332,3.981,0,8.376.007,12.254.014,4.848.008,9.862.016,15.177.016,70.776,0,152.606-1.8,222.9-15.139,40.822-7.747,72.729-18.68,94.837-32.495,25.92-16.2,39.063-36.779,39.063-61.175,0-55.691-33.379-149.916-83.059-234.465-25.356-43.153-52.682-79.559-79.023-105.281C449.511,73.727,421.931,58.93,397.424,58.93Z" transform="translate(100.81 85.89)" fill="#ffedc5" opacity="0.3"/>
    </g>
  </g>
</svg>
