<svg xmlns="http://www.w3.org/2000/svg" xmlns:xlink="http://www.w3.org/1999/xlink" width="3386.762" height="3386.474" viewBox="0 0 3386.762 3386.474">
  <defs>
    <filter id="Path_763" x="0" y="0" width="3386.762" height="3386.474" filterUnits="userSpaceOnUse">
      <feOffset dx="5" dy="3" input="SourceAlpha"/>
      <feGaussianBlur stdDeviation="4.5" result="blur"/>
      <feFlood flood-color="#b69c7f" flood-opacity="0.839"/>
      <feComposite operator="in" in2="blur"/>
      <feComposite in="SourceGraphic"/>
    </filter>
    <filter id="Path_762" x="243.676" y="244.944" width="2898.788" height="2898.541" filterUnits="userSpaceOnUse">
      <feOffset dx="5" dy="3" input="SourceAlpha"/>
      <feGaussianBlur stdDeviation="4.5" result="blur-2"/>
      <feFlood flood-color="#b69c7f" flood-opacity="0.839"/>
      <feComposite operator="in" in2="blur-2"/>
      <feComposite in="SourceGraphic"/>
    </filter>
    <filter id="Path_760" x="742.06" y="690.39" width="2010.493" height="2010.322" filterUnits="userSpaceOnUse">
      <feOffset dx="5" dy="5" input="SourceAlpha"/>
      <feGaussianBlur stdDeviation="2.5" result="blur-3"/>
      <feFlood flood-color="#b69c7f"/>
      <feComposite operator="in" in2="blur-3"/>
      <feComposite in="SourceGraphic"/>
    </filter>
    <filter id="Path_759" x="949.922" y="898.229" width="1590.323" height="1590.188" filterUnits="userSpaceOnUse">
      <feOffset dx="3" dy="3" input="SourceAlpha"/>
      <feGaussianBlur stdDeviation="2.5" result="blur-4"/>
      <feFlood flood-color="#b69c7f" flood-opacity="0.839"/>
      <feComposite operator="in" in2="blur-4"/>
      <feComposite in="SourceGraphic"/>
    </filter>
    <filter id="Subtraction_5" x="857.117" y="732.076" width="1734.241" height="1881.132" filterUnits="userSpaceOnUse">
      <feOffset dx="3" dy="3" input="SourceAlpha"/>
      <feGaussianBlur stdDeviation="4.5" result="blur-5"/>
      <feFlood flood-color="#b69c7f" flood-opacity="0.922"/>
      <feComposite operator="in" in2="blur-5"/>
      <feComposite in="SourceGraphic"/>
    </filter>
  </defs>
  <g id="Group_196" data-name="Group 196" transform="translate(-1123.738 7662.09)">
    <g transform="matrix(1, 0, 0, 1, 1123.74, -7662.09)" filter="url(#Path_763)">
      <path id="Path_763-2" data-name="Path 763" d="M36.6,1296.992c-34.845-519.224-201.55-645.578,640.5-1145.13s1671.771,354.11,1686.174,819.726c6.293,203.474,89.088,824.693-154.945,1106.724-315.255,364.355-1009.742,354.822-1391.848,150.439C137.793,1865.729,71.447,1816.212,36.6,1296.992Z" transform="matrix(0.72, 0.69, -0.69, 0.72, 1654.93, 10.5)" fill="#f6e4d0"/>
    </g>
    <g transform="matrix(1, 0, 0, 1, 1123.74, -7662.09)" filter="url(#Path_762)">
      <path id="Path_762-2" data-name="Path 762" d="M31.286,1108.615C1.5,664.8-140.991,556.8,578.763,129.805S2007.725,432.483,2020.035,830.474c5.379,173.921,76.148,704.914-132.44,945.983-269.466,311.435-863.086,303.288-1189.694,128.59C117.78,1594.75,61.07,1552.423,31.286,1108.615Z" transform="matrix(0.72, 0.69, -0.69, 0.72, 1659.47, 255.44)" fill="#f6daba"/>
    </g>
    <g transform="matrix(1, 0, 0, 1, 1123.74, -7662.09)" filter="url(#Path_760)">
      <path id="Path_760-2" data-name="Path 760" d="M21.739,770.333C1.043,461.947-97.969,386.9,402.16,90.2S1395.09,300.518,1403.644,577.063c3.738,120.853,52.912,489.818-92.028,657.328-187.242,216.4-599.725,210.743-826.672,89.352C81.841,1108.129,42.435,1078.719,21.739,770.333Z" transform="matrix(0.72, 0.69, -0.69, 0.72, 1722.44, 692.89)" fill="#eebc81"/>
    </g>
    <g transform="matrix(1, 0, 0, 1, 1123.74, -7662.09)" filter="url(#Path_759)">
      <path id="Path_759-2" data-name="Path 759" d="M17.162,608.133C.824,364.68-77.341,305.435,317.482,71.2S1101.34,237.24,1108.093,455.558c2.951,95.406,41.771,386.683-72.65,518.921C887.627,1145.315,562,1140.848,382.834,1045.018,64.608,874.8,33.5,851.586,17.162,608.133Z" transform="matrix(0.72, 0.69, -0.69, 0.72, 1726.4, 902.73)" fill="#eaaa60"/>
    </g>
    <g id="Group_195" data-name="Group 195">
      <ellipse id="Ellipse_277" data-name="Ellipse 277" cx="21.663" cy="3.249" rx="21.663" ry="3.249" transform="matrix(0.163, -0.987, 0.987, 0.163, 2405.329, -5868.884)" fill="#e0e0e0"/>
      <ellipse id="Ellipse_278" data-name="Ellipse 278" cx="21.663" cy="2.208" rx="21.663" ry="2.208" transform="matrix(0.163, -0.987, 0.987, 0.163, 2704.516, -5819.298)" fill="#e0e0e0"/>
      <rect id="Rectangle_319" data-name="Rectangle 319" width="12.998" height="43.325" transform="translate(2545.936 -5854.362) rotate(22.547)" fill="#f55f44"/>
      <rect id="Rectangle_320" data-name="Rectangle 320" width="14.624" height="43.325" transform="matrix(-0.998, 0.066, -0.066, -0.998, 2561.042, -5809.104)" opacity="0.05"/>
      <rect id="Rectangle_321" data-name="Rectangle 321" width="12.998" height="43.325" transform="matrix(-0.998, 0.066, -0.066, -0.998, 2561.042, -5809.104)" fill="#f55f44"/>
      <rect id="Rectangle_323" data-name="Rectangle 323" width="24.912" height="43.325" transform="matrix(0.987, 0.163, -0.163, 0.987, 2545.974, -5889.539)" opacity="0.05"/>
      <rect id="Rectangle_324" data-name="Rectangle 324" width="22.746" height="43.325" transform="matrix(0.987, 0.163, -0.163, 0.987, 2547.042, -5889.362)" fill="#f55f44"/>
      <rect id="Rectangle_325" data-name="Rectangle 325" width="15.164" height="43.325" transform="matrix(0.987, 0.163, -0.163, 0.987, 2550.248, -5888.833)" opacity="0.05"/>
      <rect id="Rectangle_326" data-name="Rectangle 326" width="12.998" height="43.325" transform="matrix(0.987, 0.163, -0.163, 0.987, 2551.317, -5888.655)" fill="#f55f44"/>
      <circle id="Ellipse_279" data-name="Ellipse 279" cx="1.806" cy="1.806" r="1.806" transform="translate(2596.455 -5769.3) rotate(-17)" fill="#dbdbdb"/>
      <g id="Group_191" data-name="Group 191" transform="translate(2442.898 -5773.344) rotate(-17)" opacity="0.5">
        <rect id="Rectangle_327" data-name="Rectangle 327" width="1.852" height="10.493" transform="translate(4.321 0)" fill="#47e6b1"/>
        <rect id="Rectangle_328" data-name="Rectangle 328" width="1.852" height="10.493" transform="translate(10.493 4.321) rotate(90)" fill="#47e6b1"/>
      </g>
      <g id="Group_192" data-name="Group 192" transform="translate(2850.897 -6034.921) rotate(-17)" opacity="0.5">
        <rect id="Rectangle_329" data-name="Rectangle 329" width="1.852" height="10.493" transform="translate(4.321 0)" fill="#47e6b1"/>
        <rect id="Rectangle_330" data-name="Rectangle 330" width="1.852" height="10.493" transform="translate(10.493 4.321) rotate(90)" fill="#47e6b1"/>
      </g>
      <path id="Path_718" data-name="Path 718" d="M7.583,4.2A2.268,2.268,0,0,1,6.319,1.458a1.088,1.088,0,0,0,.049-.252h0A1.137,1.137,0,0,0,4.325.453h0A1.079,1.079,0,0,0,4.2.676,2.268,2.268,0,0,1,1.458,1.94a1.09,1.09,0,0,0-.252-.049h0A1.137,1.137,0,0,0,.453,3.934h0a1.088,1.088,0,0,0,.223.126A2.268,2.268,0,0,1,1.94,6.8a1.089,1.089,0,0,0-.049.252h0a1.137,1.137,0,0,0,2.043.754h0a1.087,1.087,0,0,0,.126-.223A2.268,2.268,0,0,1,6.8,6.319a1.089,1.089,0,0,0,.252.049h0a1.137,1.137,0,0,0,.754-2.043h0A1.1,1.1,0,0,0,7.583,4.2Z" transform="translate(2669.367 -5791.814) rotate(-17)" fill="#4d8af0" opacity="0.5"/>
      <circle id="Ellipse_282" data-name="Ellipse 282" cx="3.704" cy="3.704" r="3.704" transform="translate(2496.734 -5755.594) rotate(-17)" fill="#47e6b1" opacity="0.5"/>
      <path id="Path_719" data-name="Path 719" d="M13.626,49.64,0,71.7S4.542,94.377,105.031,93.764,213.468,71.7,213.468,71.7L194.733,42.286,137.392,0Z" transform="translate(2515.623 -5885.122) rotate(-17)" fill="#6c63ff"/>
      <path id="Path_720" data-name="Path 720" d="M12.917,49.64,0,71.7S4.306,94.377,99.57,93.764,202.369,71.7,202.369,71.7L184.608,42.286,130.248,0Z" transform="translate(2526.237 -5888.367) rotate(-17)" opacity="0.15"/>
      <path id="Path_721" data-name="Path 721" d="M428.375,98.054,235.331,183.239,0,98.054,215.72,0,321.612,48.825l3.794,1.753Z" transform="translate(2364.922 -5975.227) rotate(-17)" fill="#3f3d56"/>
      <path id="Path_723" data-name="Path 723" d="M7.789,69.649l-3.677.221L0,0,3.793,1.753Z" transform="translate(2686.756 -6022.565) rotate(-17)" fill="#f5f5f5"/>
      <ellipse id="Ellipse_284" data-name="Ellipse 284" cx="17.772" cy="12.257" rx="17.772" ry="12.257" transform="translate(2696.326 -5956.069) rotate(-17)" fill="#f5f5f5"/>
      <path id="Path_725" data-name="Path 725" d="M1051.72,298.409c0,35.247-8.348,64.261-22.83,89.116a178.1,178.1,0,0,1-16.226,23.3C959.427,475.939,860.449,511.578,770.992,569.3,506.932,739.7,478.329,466.659,490.255,298.409c4.811-67.889,31.249-130.076,73.251-177.691a278.837,278.837,0,0,1,28.513-28.032C639.7,52.077,701.309,27.5,770.992,27.5c119.553,0,221.648,72.109,262.127,173.722a262.427,262.427,0,0,1,18.6,97.184Z" transform="translate(2315.48 -6058.366)" fill="#e1d2c1"/>
      <path id="Path_726" data-name="Path 726" d="M830.642,88.423l-267.3,32.161a278.829,278.829,0,0,1,28.513-28.032Z" transform="translate(2315.646 -6058.231)" fill="#eebc81"/>
      <path id="Path_728" data-name="Path 728" d="M1042.094,228.834,654.05,178.5l378.7,22.389a261.041,261.041,0,0,1,9.341,27.941Z" transform="translate(2315.846 -6058.033)" fill="#eebc81"/>
      <path id="Path_741" data-name="Path 741" d="M573.283,636.956s61.581,2.566,61.581,17.961-69.279,0-69.279,0Z" transform="translate(2315.651 -6057.022)" fill="#a0616a"/>
      <path id="Path_742" data-name="Path 742" d="M481.667,873.215l-115.464-7.7-5.132-61.581L335.412,857.82l-112.9-15.4c2.566-97.5,43.62-192.44,46.186-205.271s8.7-65.84,8.7-65.84c11.213-23.785,69.971-26.018,116.029-23.863,19.09.872,36.025,2.515,46.468,3.695,6.9.77,10.982,1.334,10.982,1.334,18.4,18.962,30.252,44.8,37.539,73.666C514.69,730.142,481.667,873.215,481.667,873.215Z" transform="translate(2314.895 -6057.221)" fill="#2f2e41"/>
      <circle id="Ellipse_285" data-name="Ellipse 285" cx="64.147" cy="64.147" r="64.147" transform="translate(2604.121 -5907.583)" fill="#a0616a"/>
      <path id="Path_743" data-name="Path 743" d="M309.672,229.879s-17.962,79.542-46.187,102.635,110.333,0,110.333,0-30.791-51.318-7.7-74.41S309.672,229.879,309.672,229.879Z" transform="translate(2314.977 -6057.919)" fill="#a0616a"/>
      <path id="Path_744" data-name="Path 744" d="M440.614,558.148l-42.568,4.72-119.082,13.24s-.564-1.514-1.565-4.259c-8.647-23.58-50.291-138.326-54.884-172.786-5.132-38.488,48.752-84.674,48.752-84.674s51.318-10.263,66.713-10.263,76.976,23.093,76.976,23.093L437.92,533.8l1.976,17.884Z" transform="translate(2314.894 -6057.756)" fill="#d0cde1"/>
      <path id="Path_745" data-name="Path 745" d="M488.134,626.444l-86.291-50.573s-1.514-4.927-4.08-13.24c-1.283-4.157-2.848-9.186-4.618-14.882-9.956-31.971-26.659-84.725-40.053-123.264-20.527-59.015,79.542,105.2,79.542,105.2l5,3.875,1.976,17.884c6.9.77,10.982,1.334,10.982,1.334C468.992,571.74,480.847,597.579,488.134,626.444Z" transform="translate(2315.176 -6057.519)" opacity="0.15"/>
      <path id="Path_746" data-name="Path 746" d="M373.6,332.3s-25.659,33.356-5.132,92.372,48.752,151.387,48.752,151.387l148.82,87.24,20.527-25.659L448.007,529.877s-5.132-195.007-30.791-202.7S373.6,332.3,373.6,332.3Z" transform="translate(2315.199 -6057.711)" fill="#d0cde1"/>
      <path id="Path_747" data-name="Path 747" d="M246.836,556.349s35.922,74.41,51.317,66.713-38.488-84.674-38.488-84.674Z" transform="translate(2314.948 -6057.239)" fill="#a0616a"/>
      <path id="Path_748" data-name="Path 748" d="M243.326,352.77l-135.992,112.9s-51.317,35.922,43.62,61.581S253.588,568.3,253.588,568.3s10.264-33.356,23.093-28.225L166.348,486.2l89.806-53.883Z" transform="translate(2314.61 -6057.648)" fill="#d0cde1"/>
      <path id="Path_749" data-name="Path 749" d="M188.527,267.388c7.137-3.535,22.9-10.668,36.323-19.263-.941-27.959,2.5-53.34,12.58-66.794,5.657-12.845,17.536-25.7,26.84-35.832,22.848-24.87,73.371-38.752,82.332-26.326,67.774,1.338,74.909,54.463,74.909,54.463-.353,22.221-23.447,22.924-43.678,22.114,1.812,15.17-3.016,30.932-17,37.923-26.735,13.367-34.755,30.745-21.388,42.776s37.429,44.113,5.347,52.133-36.092,24.061-26.735,30.745S296.674,347.3,296.674,347.3s-5.347,32.082-33.419,24.061c-2.516-.719-5.03-2.561-7.5-5.315-7.581,8.33-14.345,13.256-19.442,13.283-29.195.155-25.694-32.18-25.694-32.18s-34.652,9.732-23.84,5.819,11.276-20.441-17.455-36.815S172.411,275.369,188.527,267.388Z" transform="translate(2314.752 -6058.174)" fill="#2f2e41"/>
      <path id="Path_750" data-name="Path 750" d="M545.871,350.969l-.465-.061,1.135,4.316a113.414,113.414,0,0,0,4.66,17.716l33.3,126.586a21.455,21.455,0,0,0,17.469,15.745l67.909,10.506A21.455,21.455,0,0,0,692.075,514.7L756.61,394.159a113.254,113.254,0,0,0,5.521-10.311l2.191-4.093-.342-.045A114.1,114.1,0,1,0,545.872,350.97Z" transform="translate(2315.605 -6057.938)" fill="#eaaa60"/>
      <path id="Path_751" data-name="Path 751" d="M674.06,534.063a23.347,23.347,0,0,1-3.571-.275L599.5,522.806a23.423,23.423,0,0,1-19.076-17.193L545.621,373.3a119.308,119.308,0,0,1-4.889-18.6l-.88-5.789a120.291,120.291,0,0,1,137.7-134.158l-.307,1.981A118.328,118.328,0,0,0,542.011,349.94l.677,4.33a118.549,118.549,0,0,0,4.848,18.44L582.367,505.1a21.417,21.417,0,0,0,17.444,15.722l70.984,10.982a21.454,21.454,0,0,0,22.163-11.06l1.768.945A23.472,23.472,0,0,1,674.06,534.063Z" transform="translate(2315.592 -6057.956)" fill="#d0cde1"/>
      <rect id="Rectangle_335" data-name="Rectangle 335" width="125.59" height="2.592" transform="translate(2964.468 -5560.264) rotate(-69.885)" fill="#d0cde1"/>
      <rect id="Rectangle_336" data-name="Rectangle 336" width="2.592" height="125.59" transform="translate(2934.551 -5688.997) rotate(-2.516)" fill="#d0cde1"/>
      <path id="Path_752" data-name="Path 752" d="M667.98,593.256l-90.957-14.071a2.593,2.593,0,1,1,.793-5.124l90.957,14.071a2.593,2.593,0,1,1-.793,5.124Z" transform="translate(2315.671 -6057.161)" fill="#3f3d56"/>
      <path id="Path_753" data-name="Path 753" d="M670.307,573.982,579.35,559.911a2.593,2.593,0,1,1,.793-5.124L671.1,568.858a2.593,2.593,0,0,1-.793,5.124Z" transform="translate(2315.676 -6057.203)" fill="#3f3d56"/>
      <path id="Path_754" data-name="Path 754" d="M672.634,554.71l-90.957-14.072a2.593,2.593,0,1,1,.793-5.124l90.957,14.071a2.593,2.593,0,1,1-.793,5.124Z" transform="translate(2315.681 -6057.246)" fill="#3f3d56"/>
      <path id="Path_755" data-name="Path 755" d="M619.64,604.49c18.042,2.791,34.223-5,36.142-17.405l-65.336-10.108C588.528,589.38,601.6,601.7,619.64,604.49Z" transform="translate(2315.705 -6057.154)" fill="#3f3d56"/>
      <path id="Path_756" data-name="Path 756" d="M652.282,354.641c-3.881-.6-7.092-3.667-8.852-5.724-.577-.674-1.139-1.373-1.7-2.074-2.05-2.552-3.986-4.962-6.681-6.218-5.95-2.776-12.961,1.1-19.031,5.261l-1.466-2.138c6.673-4.575,14.455-8.8,21.593-5.473,3.242,1.512,5.461,4.274,7.606,6.944.546.68,1.091,1.358,1.651,2.012,1.83,2.137,5.481,5.6,9.392,4.8a12.626,12.626,0,0,0,4.505-2.385,24.13,24.13,0,0,1,3.188-2.012,12.7,12.7,0,0,1,13.937,1.97,25.075,25.075,0,0,1,1.891,2c1.166,1.33,2.267,2.584,3.7,3.04,2.119.677,4.359-.534,6.732-1.813,2.447-1.321,4.977-2.687,7.847-2.35.093.011.187.024.28.038,5.107.79,7.461,6.438,8.793,10.653l-2.473.781c-1.81-5.729-4.015-8.579-6.9-8.9-2.056-.242-4.123.874-6.312,2.056-2.744,1.482-5.584,3.013-8.75,2-2.119-.674-3.515-2.263-4.863-3.8a22.839,22.839,0,0,0-1.692-1.8,10.188,10.188,0,0,0-11.037-1.56,21.884,21.884,0,0,0-2.843,1.805,14.73,14.73,0,0,1-5.482,2.809,8.524,8.524,0,0,1-3.03.067Z" transform="translate(2315.759 -6057.684)" fill="#d0cde1"/>
      <path id="Path_724" data-name="Path 724" d="M16.37,12.048,0,112.606s117.511-38.448,219.822,0L204.622,6.133S67.233-11.021,16.37,12.048Z" transform="translate(2496.4 -5926.263) rotate(-17)" fill="#3f3d56"/>
    </g>
    <g transform="matrix(1, 0, 0, 1, 1123.74, -7662.09)" filter="url(#Subtraction_5)">
      <path id="Subtraction_5-2" data-name="Subtraction 5" d="M1276.519,2222.842a519.193,519.193,0,0,1-62.812-3.88,570.883,570.883,0,0,1-62.423-11.263,636.814,636.814,0,0,1-61.684-18.074c-20.089-6.988-40.476-15.168-60.594-24.312-19.684-8.947-39.586-19.033-59.153-29.978-19.171-10.723-38.47-22.523-57.362-35.071a1001.409,1001.409,0,0,1-107.948-83.13,1106.785,1106.785,0,0,1-178.975-202.182,972.815,972.815,0,0,1-65.416-109.891,760.307,760.307,0,0,1-45.628-109.65c-41.811-129.769-75.51-235.9-97.105-322.358-22.3-89.261-30.821-154.207-27.643-210.583A347.073,347.073,0,0,1,404.7,978.46c8.181-26.479,19.8-52.919,35.519-80.829,7.6-13.495,16.047-27.168,25.821-41.8,9.323-13.958,19.586-28.383,31.374-44.1,20.661-27.547,46.065-59.078,79.949-99.228,35.3-41.826,65.482-81.366,92.113-116.251,13.478-17.655,26.208-34.331,38.713-50.175,14.018-17.761,25.781-31.977,37.02-44.738,27.15-30.826,51.813-53.584,77.616-71.621,7.1-4.959,14.405-9.637,21.727-13.9,7.525-4.385,15.33-8.492,23.2-12.207,8.049-3.8,16.438-7.32,24.936-10.461,8.665-3.2,17.732-6.119,26.948-8.668,9.37-2.591,19.2-4.888,29.227-6.825,10.167-1.965,20.859-3.626,31.779-4.935,11.049-1.325,22.69-2.333,34.6-3,12.024-.67,24.705-1.01,37.693-1.01,12.963,0,26.637.338,40.644,1.005,14.091.671,28.963,1.7,44.2,3.046,15.31,1.357,31.468,3.085,48.025,5.135,16.613,2.057,34.145,4.5,52.111,7.271,35.934,5.535,75.48,12.647,117.538,21.138,41.93,8.466,88.041,18.643,137.054,30.248,147.057,34.82,271.3,103.18,369.271,203.183,11.29,11.524,22.365,23.62,32.915,35.952,10.377,12.128,20.53,24.814,30.179,37.707,9.487,12.677,18.74,25.895,27.5,39.285,8.615,13.165,16.99,26.854,24.89,40.686,7.765,13.6,15.281,27.7,22.338,41.91,6.937,13.972,13.615,28.425,19.849,42.957a904.394,904.394,0,0,1,32.474,88.347c5.564,17.947,10.688,36.42,15.229,54.905,4.459,18.147,8.47,36.77,11.923,55.351a1031.848,1031.848,0,0,1,14.37,110.759,1044,1044,0,0,1,2.483,108.7,995.092,995.092,0,0,1-8.512,104.085,881.734,881.734,0,0,1-18.613,96.909,718,718,0,0,1-27.821,87.174,533.943,533.943,0,0,1-36.135,74.879c-13.416,22.768-28.07,42.964-43.556,60.026-13.908,15.323-31.213,35.734-51.251,59.368l-.007.008c-30.664,36.168-68.826,81.179-111.758,127.852-23.568,25.621-45.818,48.785-68.022,70.814-25.24,25.042-50.274,48.4-74.405,69.423-13.138,11.446-26.325,22.478-39.2,32.788-13.519,10.83-27.082,21.179-40.311,30.759-13.845,10.025-27.728,19.5-41.266,28.168-14.119,9.038-28.27,17.454-42.06,25.016-14.34,7.864-28.7,15.031-42.695,21.3-14.508,6.505-29.032,12.236-43.169,17.032a411.061,411.061,0,0,1-43.483,12.2,349,349,0,0,1-43.637,6.8C1305.726,2222.19,1291.086,2222.841,1276.519,2222.842ZM1092.767,650.554c-10.177,0-20.115.268-29.538.793-9.331.521-18.454,1.311-27.114,2.35-8.557,1.026-16.935,2.328-24.9,3.869-7.854,1.519-15.56,3.319-22.9,5.35a243.326,243.326,0,0,0-75.861,35.453c-20.22,14.133-39.547,31.967-60.824,56.124-19.275,21.884-38.739,47.381-59.347,74.375l-.017.022c-20.863,27.328-44.51,58.3-72.16,91.067-26.556,31.468-46.464,56.176-62.65,77.758-18.662,24.881-33.322,46.9-44.82,67.315-12.318,21.871-21.422,42.59-27.834,63.34A271.965,271.965,0,0,0,573.1,1194.2c-2.49,44.179,4.191,95.072,21.662,165.018,16.922,67.748,43.33,150.919,76.094,252.608a595.852,595.852,0,0,0,35.755,85.925,762.3,762.3,0,0,0,51.262,86.114A867.343,867.343,0,0,0,898.124,1942.3a784.662,784.662,0,0,0,84.591,65.142c14.806,9.834,29.929,19.08,44.951,27.482,15.333,8.577,30.928,16.48,46.354,23.491,65.82,29.917,131.077,45.084,193.958,45.081,11.417,0,22.889-.51,34.1-1.517a273.59,273.59,0,0,0,34.194-5.332,322.249,322.249,0,0,0,34.075-9.559c11.076-3.758,22.458-8.249,33.828-13.347,10.962-4.915,22.218-10.532,33.457-16.695,10.807-5.926,21.9-12.521,32.959-19.6,10.61-6.792,21.49-14.218,32.337-22.073,20.229-14.648,41.191-31.4,62.3-49.8,18.909-16.474,38.526-34.778,58.306-54.4,17.4-17.263,34.835-35.414,53.3-55.492,33.65-36.582,63.554-71.854,87.583-100.195l.027-.032c15.693-18.509,29.245-34.493,40.135-46.491a286.125,286.125,0,0,0,34.131-47.038,418.43,418.43,0,0,0,28.316-58.678,562.663,562.663,0,0,0,21.8-68.312A690.992,690.992,0,0,0,1903.417,1459a779.848,779.848,0,0,0,6.67-81.564,818.249,818.249,0,0,0-1.945-85.182A784.094,784.094,0,0,0,1875.6,1119.06a708.8,708.8,0,0,0-25.448-69.231,655.85,655.85,0,0,0-33.059-66.5,609.087,609.087,0,0,0-41.056-62.667c-7.56-10.1-15.517-20.044-23.648-29.548-8.271-9.666-16.949-19.145-25.793-28.173-76.774-78.364-174.133-131.933-289.37-159.219-153.188-36.271-262.629-53.164-344.415-53.164h-.047Z" transform="translate(478.48 373.87)" fill="#f3cea2"/>
    </g>
  </g>
</svg>
