<?xml version="1.0"?>
<svg xmlns="http://www.w3.org/2000/svg" xmlns:xlink="http://www.w3.org/1999/xlink" xmlns:svgjs="http://svgjs.com/svgjs" version="1.1" width="512" height="512" x="0" y="0" viewBox="0 0 24 24" style="enable-background:new 0 0 512 512" xml:space="preserve"><g><path xmlns="http://www.w3.org/2000/svg" d="m20.5 20c-.056 0-.111-.009-.165-.028l-20-7c-.188-.065-.319-.237-.334-.436-.014-.199.091-.388.268-.479l23-12c.168-.088.369-.073.523.037.153.11.231.298.202.484l-3 19c-.023.146-.11.275-.237.351-.079.047-.168.071-.257.071zm-18.745-7.591 18.345 6.421 2.752-17.428z" fill="#000000" data-original="#000000" style=""/><path xmlns="http://www.w3.org/2000/svg" d="m9.5 23c-.05 0-.101-.008-.15-.023-.208-.066-.35-.259-.35-.477v-7c0-.127.048-.249.135-.341l14-15c.189-.201.506-.212.706-.024.202.188.213.505.024.706l-13.865 14.856v5.219l2.948-4.203c.158-.227.473-.281.696-.122.226.158.281.47.122.696l-3.857 5.5c-.095.136-.249.213-.409.213z" fill="#000000" data-original="#000000" style=""/></g></svg>
