<svg xmlns="http://www.w3.org/2000/svg" width="167.252" height="184.108" viewBox="0 0 167.252 184.108">
  <g id="search" transform="matrix(0.848, -0.53, 0.53, 0.848, 6004.71, 1097.838)" fill="none">
    <path d="M-4480.133-3917.822l-7.574-48.144q-.336,0-.673,0a50.671,50.671,0,0,1-50.5-50.84,50.671,50.671,0,0,1,50.5-50.839,50.671,50.671,0,0,1,50.5,50.839,50.78,50.78,0,0,1-40.07,49.754l7.5,47.682a4.931,4.931,0,0,1-4.076,5.647,4.887,4.887,0,0,1-.772.062A4.914,4.914,0,0,1-4480.133-3917.822Z" stroke="none"/>
    <path d="M -4487.81884765625 -3973.965576171875 C -4487.8173828125 -3973.965576171875 -4487.81298828125 -3973.965576171875 -4487.8115234375 -3973.965576171875 L -4483.64892578125 -3974.019775390625 L -4479.60498046875 -3974.874755859375 C -4460.0634765625 -3979.0068359375 -4445.8798828125 -3996.639892578125 -4445.8798828125 -4016.80224609375 C -4445.8798828125 -4040.423828125 -4464.94580078125 -4059.6416015625 -4488.380859375 -4059.6416015625 C -4511.81494140625 -4059.6416015625 -4530.88037109375 -4040.423828125 -4530.88037109375 -4016.80224609375 C -4530.88037109375 -3993.181396484375 -4511.81982421875 -3973.96435546875 -4487.81884765625 -3973.965576171875 M -4475.29736328125 -3913.65771484375 C -4477.66650390625 -3913.65771484375 -4479.7509765625 -3915.39111328125 -4480.13330078125 -3917.822265625 L -4487.70751953125 -3965.96630859375 C -4487.931640625 -3965.96337890625 -4488.15625 -3965.9619140625 -4488.380859375 -3965.9619140625 C -4516.27099609375 -3965.9619140625 -4538.88037109375 -3988.7236328125 -4538.88037109375 -4016.80224609375 C -4538.88037109375 -4044.87939453125 -4516.27099609375 -4067.6416015625 -4488.380859375 -4067.6416015625 C -4460.48974609375 -4067.6416015625 -4437.8798828125 -4044.87939453125 -4437.8798828125 -4016.80224609375 C -4437.8798828125 -3992.32421875 -4455.0654296875 -3971.88671875 -4477.9501953125 -3967.0478515625 L -4470.44873046875 -3919.3662109375 C -4470.025390625 -3916.673828125 -4471.849609375 -3914.1455078125 -4474.52490234375 -3913.71923828125 C -4474.7841796875 -3913.677734375 -4475.04248046875 -3913.65771484375 -4475.29736328125 -3913.65771484375 Z" stroke="none" fill="#fff"/>
  </g>
</svg>
